# xmcd CD database file
#
# Track frame offsets:
#	150
#	21497
#	41645
#	60852
#
# Disc length: 1062 seconds
#
# Revision: 11
# Processed by: cddbd v1.5.1PL0 Copyright (c) Steve Scherf et al.
# Submitted via: CDex 1.51
#
DISCID=2b042404
DTITLE=Kat Onoma - Family dingo and more ...
DYEAR=2001
DGENRE=Rock
TTITLE0=Family dingo (radio edit)
TTITLE1=comme un bruit
TTITLE2=daft punk is dead ?
TTITLE3=magic (demo)
EXTD=edited with Media Database 1.2 by dj@box24.ch YEAR: 2001
EXTT0=
EXTT1=
EXTT2=
EXTT3=
PLAYORDER=
